<?xml version="1.0" encoding="utf-8"?>
<!-- Generator: Adobe Illustrator 17.1.0, SVG Export Plug-In . SVG Version: 6.00 Build 0)  -->
<!DOCTYPE svg PUBLIC "-//W3C//DTD SVG 1.1//EN" "http://www.w3.org/Graphics/SVG/1.1/DTD/svg11.dtd">
<svg version="1.1" id="Layer_1" xmlns="http://www.w3.org/2000/svg" xmlns:xlink="http://www.w3.org/1999/xlink" x="0px" y="0px"
	 viewBox="0 0 32 32" enable-background="new 0 0 32 32" xml:space="preserve">
<g>
	<path fill="#0A6C9B" d="M16.7,14.7L16.7,14.7C16.7,14.7,16.7,14.7,16.7,14.7L16.7,14.7z"/>
	<path fill="#0A6C9B" d="M15.8-0.1c-8.8,0-16,7.2-16,16c0,8.8,7.2,16,16,16c8.8,0,16-7.2,16-16C31.8,7,24.6-0.1,15.8-0.1z
		 M11.4,23.5H8V13.2h3.4V23.5z M9.7,11.8L9.7,11.8c-1.2,0-1.9-0.8-1.9-1.8c0-1,0.8-1.8,1.9-1.8c1.2,0,1.9,0.8,1.9,1.8
		C11.6,11,10.9,11.8,9.7,11.8z M23.8,23.5h-3.4V18c0-1.4-0.5-2.3-1.7-2.3c-0.9,0-1.5,0.6-1.8,1.3c-0.1,0.2-0.1,0.5-0.1,0.8v5.8h-3.4
		c0,0,0-9.3,0-10.3h3.4v1.5C17.2,14,18,13,19.8,13c2.3,0,3.9,1.5,3.9,4.6V23.5z"/>
</g>
</svg>
