<?xml version="1.0" encoding="utf-8"?>
<!-- Generator: Adobe Illustrator 17.1.0, SVG Export Plug-In . SVG Version: 6.00 Build 0)  -->
<!DOCTYPE svg PUBLIC "-//W3C//DTD SVG 1.1//EN" "http://www.w3.org/Graphics/SVG/1.1/DTD/svg11.dtd">
<svg version="1.1" id="Layer_1" xmlns="http://www.w3.org/2000/svg" xmlns:xlink="http://www.w3.org/1999/xlink" x="0px" y="0px"
	 viewBox="289.2 379.9 32 32" enable-background="new 289.2 379.9 32 32" xml:space="preserve">
<path fill="#36609F" d="M305.2,379.9c-8.8,0-16,7.2-16,16s7.2,16,16,16s16-7.2,16-16C321.2,387,314,379.9,305.2,379.9z M308.6,395.9
	h-2.2c0,3.6,0,8,0,8H303c0,0,0-4.4,0-8h-1.6v-2.8h1.6v-1.8c0-1.3,0.6-3.4,3.4-3.4h2.5v2.7c0,0-1.5,0-1.8,0s-0.7,0.1-0.7,0.8v1.7h2.5
	L308.6,395.9z"/>
</svg>
